<?xml version="1.0" encoding="UTF-8"?>
<svg width="1024px" height="1024px" viewBox="0 0 1024 1024" version="1.1" xmlns="http://www.w3.org/2000/svg" xmlns:xlink="http://www.w3.org/1999/xlink" style="background: #50E3C2;">
    <!-- Generator: Sketch 44.1 (41455) - http://www.bohemiancoding.com/sketch -->
    <title>iTunesArtwork@2x</title>
    <desc>Created with Sketch.</desc>
    <defs>
        <path d="M166.896364,188.069808 C167.028636,178.618384 166.733227,172.507169 166.733227,172.507169 C166.733227,172.507169 165.097455,56.3676158 42.5115,0.744531073 C42.5115,0.744531073 -62.103,129.97135 57.2246364,252.658949 C67.6256818,263.354678 77.0258636,271.526497 85.5530455,277.624475 C102.752909,240.943949 130.076045,210.648209 166.896364,188.069808 L166.896364,188.069808 Z" id="path-1"></path>
        <path d="M0.0396818182,188.069808 C-0.097,178.618384 0.198409091,172.507169 0.198409091,172.507169 C0.198409091,172.507169 1.83418182,56.3676158 124.424545,0.744531073 C124.424545,0.744531073 229.034636,129.97135 109.715818,252.658949 C99.3103636,263.354678 89.9057727,271.526497 81.3785909,277.624475 C64.1787273,240.943949 36.86,210.648209 0.0396818182,188.069808 L0.0396818182,188.069808 Z" id="path-3"></path>
    </defs>
    <g id="Page-1" stroke="none" stroke-width="1" fill="none" fill-rule="evenodd">
        <g id="Size-Guides" transform="translate(0.000000, -124.000000)"></g>
        <g id="iTunesArtwork@2x">
            <g id="Imported-Layers" transform="translate(128.000000, 125.000000)">
                <path d="M56.5095,0.490231638 C56.5095,0.490231638 -82.4209545,172.111672 76.0505909,335.053864 C234.522136,497.987232 221.497682,228.604006 221.497682,228.604006 C221.497682,228.604006 219.328409,74.3542994 56.5095,0.490231638" id="Fill-1" fill="#FFFFFF"></path>
                <path d="M714.641273,0.490231638 C714.641273,0.490231638 853.571727,172.111672 695.104591,335.053864 C536.624227,497.987232 549.6575,228.604006 549.6575,228.604006 C549.6575,228.604006 551.826773,74.3542994 714.641273,0.490231638" id="Fill-2" fill="#FFFFFF"></path>
                <g id="Group-5" transform="translate(27.454545, 47.536723)">
                    <mask id="mask-2" fill="white">
                        <use xlink:href="#path-1"></use>
                    </mask>
                    <g id="Clip-4"></g>
                    <polygon id="Fill-3" fill="#616C7B" mask="url(#mask-2)" points="-30.19 -50.5367232 745.986364 -50.5367232 745.986364 730.463277 -30.19 730.463277"></polygon>
                </g>
                <g id="Group-8" transform="translate(574.590909, 47.536723)">
                    <mask id="mask-4" fill="white">
                        <use xlink:href="#path-3"></use>
                    </mask>
                    <g id="Clip-7"></g>
                    <polygon id="Fill-6" fill="#616C7B" mask="url(#mask-4)" points="-577.326364 -50.5367232 198.85 -50.5367232 198.85 730.463277 -577.326364 730.463277"></polygon>
                </g>
                <path d="M213.808227,756.427633 C262.153909,790.826932 337.007045,777.629356 354.621364,734.519921 C422.3935,568.700825 310.874364,574.101638 310.874364,530.91278 C310.874364,510.465582 320.556727,482.729051 383.258409,482.729051 C440.576591,482.729051 454.169818,510.465582 454.169818,530.91278 C454.169818,574.101638 347.297864,568.700825 415.065591,734.519921 C435.506136,784.530395 521.068955,790.826932 582.456727,740.406102 C674.805136,649.329147 699.5225,498.988853 699.5225,415.735136 C699.5225,290.788373 590.864864,189.496644 387.407364,189.496644 C183.949864,189.496644 71.6326818,277.939379 71.6326818,415.735136 C71.6326818,504.076384 106.393955,667.967249 213.808227,756.427633" id="Fill-9" fill="#FFFFFF"></path>
                <path d="M300.050045,428.469407 C300.050045,474.067452 231.537182,547.44174 216.475727,547.44174 C194.791818,547.44174 132.897,474.067452 132.897,428.469407 C132.897,382.880186 170.316955,345.917266 216.475727,345.917266 C262.6345,345.917266 300.050045,382.880186 300.050045,428.469407" id="Fill-10" fill="#616C7B"></path>
                <path d="M242.524636,428.469407 C242.524636,441.666983 231.837,452.367124 218.645,452.367124 C205.457409,452.367124 194.765364,441.666983 194.765364,428.469407 C194.765364,415.271831 205.457409,404.571689 218.645,404.571689 C231.837,404.571689 242.524636,415.271831 242.524636,428.469407" id="Fill-11" fill="#FFFFFF"></path>
                <path d="M570.322909,428.469407 C570.322909,441.666983 559.630864,452.367124 546.443273,452.367124 C533.255682,452.367124 522.563636,441.666983 522.563636,428.469407 C522.563636,415.271831 533.255682,404.571689 546.443273,404.571689 C559.630864,404.571689 570.322909,415.271831 570.322909,428.469407" id="Fill-12" fill="#616C7B"></path>
            </g>
        </g>
    </g>
</svg>